<?xml version="1.0" encoding="utf-8"?>
<!-- Generator: Adobe Illustrator 24.3.0, SVG Export Plug-In . SVG Version: 6.00 Build 0)  -->
<svg version="1.1" id="Layer_2_1_" xmlns="http://www.w3.org/2000/svg" xmlns:xlink="http://www.w3.org/1999/xlink" x="0px" y="0px"
	 viewBox="0 0 386.2 200" style="enable-background:new 0 0 386.2 200;" xml:space="preserve">
<style type="text/css">
	.st0{fill:#DDB46F;}
	.st1{enable-background:new    ;}
</style>
<g id="Layer_1-2">
	<path class="st0" d="M325.2,0C296.9,0,274,23.7,274,52.9v99.5h19.7V52.9c0-17.9,14.1-32.5,31.5-32.5c17.4,0,31.5,14.6,31.5,32.5
		v99.5h19.7V52.9C376.4,23.7,353.5,0,325.2,0"/>
	<path class="st0" d="M18.8,4.5v17.2h60.7v80.5c0,23.6-9.2,33.7-29.2,33.7c-11.2,0-22.6-6.2-31.1-18.9L6.5,129.5
		c10.5,16.9,28,24.3,44.2,24.3c36.9,0,49.3-22.5,49.3-49.9V4.5H18.8z"/>
	<polygon class="st0" points="166.3,133.9 166.3,22 237.3,22 237.3,4.8 145.9,4.8 145.9,151.1 239.5,151.1 239.5,133.9 	"/>
	<path class="st0" d="M205.1,105.8L205.1,105.8c0-14.7-11.9-26.6-26.6-26.6c14.7,0,26.6-11.9,26.6-26.6c0,14.7,11.9,26.6,26.6,26.6
		C217,79.2,205.1,91.1,205.1,105.8"/>
	<rect x="293.5" y="75.1" class="st0" width="64.4" height="19.7"/>
	<g class="st1">
		<path class="st0" d="M12.9,194.3v-15.4h6.6c1.7,0,3,0.3,4,1c0.9,0.7,1.4,1.7,1.4,2.9c0,0.8-0.2,1.5-0.6,2.1
			c-0.4,0.6-0.9,1-1.6,1.3c-0.7,0.3-1.4,0.4-2.2,0.4l0.4-0.5c1,0,1.8,0.2,2.5,0.5s1.3,0.7,1.7,1.3c0.4,0.6,0.6,1.3,0.6,2.2
			c0,1.3-0.5,2.3-1.4,3c-1,0.7-2.4,1.1-4.3,1.1H12.9z M14.6,193H20c1.4,0,2.4-0.2,3.1-0.7c0.7-0.5,1.1-1.2,1.1-2.2
			c0-1-0.4-1.7-1.1-2.2s-1.8-0.7-3.1-0.7h-5.6v-1.3h5.1c1.2,0,2.2-0.2,2.9-0.7s1-1.2,1-2.1c0-0.9-0.3-1.6-1-2.1s-1.6-0.7-2.9-0.7
			h-4.9V193z"/>
	</g>
	<g class="st1">
		<path class="st0" d="M39.5,194.3v-5.7l0.4,1l-6.5-10.7H35l5.7,9.4h-0.9l5.7-9.4h1.6l-6.5,10.7l0.4-1v5.7H39.5z"/>
		<path class="st0" d="M70.4,192.9h9.3v1.4H68.7v-15.4h10.6v1.4h-8.9V192.9z M70.2,185.8h8.1v1.4h-8.1V185.8z"/>
		<path class="st0" d="M94.3,194.4c-1.1,0-2.2-0.2-3.3-0.6s-1.9-0.9-2.4-1.4l0.6-1.3c0.5,0.5,1.3,1,2.2,1.3c0.9,0.4,1.9,0.5,2.9,0.5
			c1,0,1.8-0.1,2.4-0.4c0.6-0.2,1.1-0.6,1.3-1c0.3-0.4,0.4-0.9,0.4-1.4c0-0.6-0.2-1.1-0.5-1.5c-0.3-0.4-0.8-0.7-1.4-0.9
			c-0.6-0.2-1.2-0.4-1.8-0.6c-0.7-0.2-1.4-0.3-2-0.5c-0.7-0.2-1.3-0.4-1.9-0.7c-0.6-0.3-1-0.7-1.4-1.2c-0.3-0.5-0.5-1.2-0.5-2
			c0-0.8,0.2-1.5,0.6-2.1c0.4-0.6,1-1.2,1.9-1.5c0.8-0.4,1.9-0.6,3.2-0.6c0.9,0,1.7,0.1,2.6,0.4s1.6,0.6,2.2,1l-0.6,1.3
			c-0.7-0.4-1.4-0.8-2.1-1c-0.7-0.2-1.5-0.3-2.1-0.3c-0.9,0-1.7,0.1-2.3,0.4c-0.6,0.2-1,0.6-1.3,1c-0.3,0.4-0.4,0.9-0.4,1.4
			c0,0.6,0.2,1.1,0.5,1.5c0.3,0.4,0.8,0.7,1.4,0.9c0.6,0.2,1.2,0.4,1.9,0.6c0.7,0.2,1.3,0.3,2,0.5c0.7,0.2,1.3,0.4,1.8,0.7
			s1,0.7,1.4,1.2c0.3,0.5,0.5,1.2,0.5,2c0,0.7-0.2,1.4-0.6,2.1c-0.4,0.6-1,1.2-1.9,1.5C96.7,194.2,95.6,194.4,94.3,194.4z"/>
		<path class="st0" d="M114.5,194.4c-1.1,0-2.2-0.2-3.3-0.6s-1.9-0.9-2.4-1.4l0.6-1.3c0.5,0.5,1.3,1,2.2,1.3
			c0.9,0.4,1.9,0.5,2.9,0.5c1,0,1.8-0.1,2.4-0.4c0.6-0.2,1.1-0.6,1.3-1c0.3-0.4,0.4-0.9,0.4-1.4c0-0.6-0.2-1.1-0.5-1.5
			c-0.3-0.4-0.8-0.7-1.4-0.9c-0.6-0.2-1.2-0.4-1.8-0.6c-0.7-0.2-1.4-0.3-2-0.5c-0.7-0.2-1.3-0.4-1.9-0.7c-0.6-0.3-1-0.7-1.4-1.2
			c-0.3-0.5-0.5-1.2-0.5-2c0-0.8,0.2-1.5,0.6-2.1c0.4-0.6,1-1.2,1.9-1.5c0.8-0.4,1.9-0.6,3.2-0.6c0.9,0,1.7,0.1,2.6,0.4
			s1.6,0.6,2.2,1l-0.6,1.3c-0.7-0.4-1.4-0.8-2.1-1c-0.7-0.2-1.5-0.3-2.1-0.3c-0.9,0-1.7,0.1-2.3,0.4c-0.6,0.2-1,0.6-1.3,1
			c-0.3,0.4-0.4,0.9-0.4,1.4c0,0.6,0.2,1.1,0.5,1.5c0.3,0.4,0.8,0.7,1.4,0.9c0.6,0.2,1.2,0.4,1.9,0.6c0.7,0.2,1.3,0.3,2,0.5
			c0.7,0.2,1.3,0.4,1.8,0.7s1,0.7,1.4,1.2c0.3,0.5,0.5,1.2,0.5,2c0,0.7-0.2,1.4-0.6,2.1c-0.4,0.6-1,1.2-1.9,1.5
			C116.9,194.2,115.8,194.4,114.5,194.4z"/>
	</g>
	<g class="st1">
		<path class="st0" d="M127.9,194.3l7-15.4h1.6l7,15.4h-1.7l-6.5-14.5h0.7l-6.5,14.5H127.9z M130.6,190.2l0.5-1.3h9l0.5,1.3H130.6z"
			/>
	</g>
	<g class="st1">
		<path class="st0" d="M154.7,194.4c-0.9,0-1.7-0.2-2.4-0.6c-0.8-0.4-1.4-0.9-1.8-1.6l0.9-1.1c0.4,0.6,0.9,1.1,1.5,1.4
			c0.6,0.3,1.2,0.5,1.8,0.5c1.9,0,2.9-1.1,2.9-3.4v-9.3h-5.6v-1.4h7.2v10.7c0,1.6-0.4,2.8-1.1,3.7
			C157.3,194,156.2,194.4,154.7,194.4z"/>
		<path class="st0" d="M172.3,192.9h9.3v1.4h-10.9v-15.4h10.6v1.4h-8.9V192.9z M172.1,185.8h8.1v1.4h-8.1V185.8z"/>
		<path class="st0" d="M193.6,192.9h9.3v1.4H192v-15.4h10.6v1.4h-8.9V192.9z M193.5,185.8h8.1v1.4h-8.1V185.8z"/>
		<path class="st0" d="M217.6,194.4c-1.1,0-2.2-0.2-3.3-0.6c-1-0.4-1.9-0.9-2.4-1.4l0.6-1.3c0.5,0.5,1.3,1,2.2,1.3
			c0.9,0.4,1.9,0.5,2.9,0.5c1,0,1.8-0.1,2.4-0.4c0.6-0.2,1.1-0.6,1.3-1c0.3-0.4,0.4-0.9,0.4-1.4c0-0.6-0.2-1.1-0.5-1.5
			c-0.3-0.4-0.8-0.7-1.4-0.9c-0.6-0.2-1.2-0.4-1.8-0.6c-0.7-0.2-1.4-0.3-2-0.5c-0.7-0.2-1.3-0.4-1.9-0.7c-0.6-0.3-1-0.7-1.4-1.2
			c-0.3-0.5-0.5-1.2-0.5-2c0-0.8,0.2-1.5,0.6-2.1s1-1.2,1.9-1.5c0.8-0.4,1.9-0.6,3.2-0.6c0.9,0,1.7,0.1,2.6,0.4s1.6,0.6,2.2,1
			l-0.6,1.3c-0.7-0.4-1.4-0.8-2.1-1c-0.7-0.2-1.5-0.3-2.1-0.3c-0.9,0-1.7,0.1-2.3,0.4s-1,0.6-1.3,1c-0.3,0.4-0.4,0.9-0.4,1.4
			c0,0.6,0.2,1.1,0.5,1.5c0.3,0.4,0.8,0.7,1.4,0.9c0.6,0.2,1.2,0.4,1.9,0.6c0.7,0.2,1.3,0.3,2,0.5c0.7,0.2,1.3,0.4,1.8,0.7
			c0.6,0.3,1,0.7,1.4,1.2c0.3,0.5,0.5,1.2,0.5,2c0,0.7-0.2,1.4-0.6,2.1c-0.4,0.6-1,1.2-1.9,1.5C220,194.2,218.9,194.4,217.6,194.4z"
			/>
	</g>
	<g class="st1">
		<path class="st0" d="M243.3,194.3l7-15.4h1.6l7,15.4h-1.7l-6.5-14.5h0.7l-6.5,14.5H243.3z M246.1,190.2l0.5-1.3h9l0.5,1.3H246.1z"
			/>
	</g>
	<g class="st1">
		<path class="st0" d="M270.4,194.3v-14H265v-1.4h12.5v1.4h-5.4v14H270.4z"/>
		<path class="st0" d="M288.3,192.9h9.3v1.4h-10.9v-15.4h10.6v1.4h-8.9V192.9z M288.1,185.8h8.1v1.4h-8.1V185.8z"/>
		<path class="st0" d="M308,194.3v-15.4h1.6v14h8.6v1.4H308z"/>
		<path class="st0" d="M327.6,194.3v-15.4h1.6v15.4H327.6z"/>
		<path class="st0" d="M342.4,192.9h9.3v1.4h-10.9v-15.4h10.6v1.4h-8.9V192.9z M342.3,185.8h8.1v1.4h-8.1V185.8z"/>
	</g>
	<g class="st1">
		<path class="st0" d="M362.1,194.3v-15.4h5.8c1.3,0,2.4,0.2,3.4,0.6s1.7,1,2.2,1.8c0.5,0.8,0.8,1.7,0.8,2.9c0,1.1-0.3,2-0.8,2.8
			c-0.5,0.8-1.2,1.4-2.2,1.8s-2.1,0.6-3.4,0.6H363l0.7-0.7v5.6H362.1z M363.8,188.8L363,188h4.8c1.5,0,2.7-0.3,3.5-1
			c0.8-0.7,1.2-1.6,1.2-2.8c0-1.2-0.4-2.2-1.2-2.9c-0.8-0.7-2-1-3.5-1H363l0.7-0.8V188.8z M372.7,194.3l-4-5.6h1.8l4,5.6H372.7z"/>
	</g>
</g>
</svg>
