<?xml version="1.0" encoding="UTF-8"?>
<svg id="Layer_2" data-name="Layer 2" height="40" xmlns="http://www.w3.org/2000/svg" viewBox="0 0 576.9 239.88">
  <defs>
    <style>
      .cls-1 {
        fill: #ddb46f;
        stroke-width: 0px;
      }
    </style>
  </defs>
  <g id="Layer_1-2" data-name="Layer 1">
    <path class="cls-1" d="M497.03,0c-44.13,0-79.89,36.91-79.89,82.46v155.16h30.8V82.46c0-27.95,22.01-50.67,49.09-50.67s49.06,22.72,49.06,50.67v155.16h30.8V82.46c0-45.55-35.76-82.46-79.86-82.46"/>
    <path class="cls-1" d="M19.15,7.08v26.86h94.64v125.51c0,36.86-14.3,52.51-45.59,52.51-17.46,0-35.26-9.66-48.46-29.4L0,201.97c16.45,26.32,43.61,37.91,69,37.91,57.48,0,76.93-35.05,76.93-77.77V7.08H19.15Z"/>
    <polygon class="cls-1" points="249.29 208.84 249.29 34.28 359.91 34.28 359.91 7.42 217.45 7.42 217.45 235.71 363.37 235.71 363.37 208.84 249.29 208.84"/>
    <path class="cls-1" d="M309.69,165.03h0c0-22.94-18.6-41.55-41.55-41.55,22.94,0,41.55-18.6,41.55-41.55,0,22.94,18.6,41.55,41.55,41.55-22.94,0-41.55,18.6-41.55,41.55"/>
    <rect class="cls-1" x="447.65" y="117.05" width="100.42" height="30.8"/>
  </g>
</svg>