<svg width="200" height="141" viewBox="0 0 200 141" fill="none" xmlns="http://www.w3.org/2000/svg">
<path d="M114.372 50.7355C112.264 37.8112 107.669 25.9814 98.3528 16.5092C85.0735 2.9534 68.5061 -1.25648 50.1258 1.01686C16.7801 5.14254 -5.94222 37.8954 1.51947 70.6062C7.04196 94.8551 26.3075 111.947 52.065 115.315C54.7631 115.652 54.9738 116.746 54.5523 118.851C53.3719 124.787 51.1798 130.302 48.3974 135.649C46.8376 138.68 47.9759 140.49 51.4327 140.448C56.5336 140.448 61.2551 138.848 65.808 136.701C82.3334 128.913 94.896 116.704 104.465 101.338C111.506 90.0558 115.721 77.8472 115.51 62.9442C115.679 59.8289 115.173 55.2822 114.457 50.7776L114.372 50.7355ZM103.496 91.5293C94.4323 109.295 81.2795 123.103 63.11 131.818C61.3395 132.66 59.4003 133.207 57.5032 133.881C56.9552 134.091 56.3228 134.386 55.8591 133.881C55.3954 133.375 55.9013 132.786 56.1121 132.281C58.4728 126.471 60.3277 120.577 60.412 114.221C60.412 111.063 59.864 110.39 56.7444 110.221C41.6524 109.463 28.8368 103.864 18.7193 92.4975C11.089 83.9094 6.87334 73.8478 5.86158 62.3548C3.50082 34.5275 23.6516 10.2786 50.4631 6.4476C52.9925 6.06871 55.6062 5.98451 57.0395 5.85822C72.1737 6.11081 84.7363 10.1102 94.6431 20.4665C103.032 29.2651 107.121 40.1266 108.976 51.9564C111.168 65.6806 109.862 78.9838 103.496 91.4872V91.5293Z" fill="#DDB46F"/>
<path d="M197.199 45.5151C193.7 30.6121 186.66 17.8983 173.507 9.31016C161.493 1.43769 148.129 -0.835647 134.091 1.0167C100.071 5.52127 77.6857 38.1057 85.5268 71.448C91.0914 95.1075 110.526 112.115 135.946 115.357C138.475 115.694 138.77 116.662 138.349 118.725C137.168 124.745 134.934 130.344 132.152 135.733C130.634 138.638 131.815 140.448 135.061 140.448C140.162 140.448 144.925 138.89 149.436 136.743C165.961 128.955 178.566 116.788 188.136 101.464C195.218 90.0977 199.518 77.847 199.265 62.9861C199.434 57.8922 198.633 51.6615 197.199 45.473V45.5151ZM187.419 91.3607C178.355 109.253 165.16 123.103 146.907 131.818C145.094 132.66 143.197 133.207 141.3 133.88C140.752 134.091 140.077 134.386 139.698 133.754C139.529 133.417 139.74 132.786 139.909 132.365C141.848 127.734 143.239 123.019 144.04 118.051C145.136 111.105 144.546 110.305 137.548 109.8C113.181 108.032 93.0728 89.0453 89.9111 64.9227C86.2013 36.4639 106.226 10.1942 134.597 6.36325C137.084 6.02646 139.571 5.98436 140.92 5.85806C156.139 6.15275 168.744 10.1942 178.65 20.7189C186.913 29.5176 190.96 40.337 192.773 52.0404C194.923 65.6804 193.658 78.8995 187.335 91.3186L187.419 91.3607Z" fill="#DDB46F"/>
</svg>
