<svg width="30" height="30" viewBox="0 0 30 30" fill="none" xmlns="http://www.w3.org/2000/svg">
<path d="M22.5 16.6947V22.2402H19.2855V17.0653C19.2855 15.7663 18.8205 14.8798 17.6565 14.8798C16.7685 14.8798 16.239 15.4768 16.0065 16.0558C15.9225 16.2628 15.9 16.5507 15.9 16.8387V22.2402H12.684C12.684 22.2402 12.7275 13.4773 12.684 12.5698H15.9V13.9393L15.879 13.9708H15.9V13.9393C16.3275 13.2793 17.0895 12.3417 18.798 12.3417C20.913 12.3417 22.5 13.7248 22.5 16.6947ZM9.3195 7.90625C8.22 7.90625 7.5 8.62925 7.5 9.57725C7.5 10.5073 8.199 11.2498 9.2775 11.2498H9.2985C10.4205 11.2498 11.118 10.5058 11.118 9.57725C11.097 8.62925 10.4205 7.90625 9.3195 7.90625ZM7.6905 22.2402H10.9065V12.5698H7.6905V22.2402Z" fill="#DDB46F"/>
<path d="M6 3C5.20435 3 4.44129 3.31607 3.87868 3.87868C3.31607 4.44129 3 5.20435 3 6V24C3 24.7956 3.31607 25.5587 3.87868 26.1213C4.44129 26.6839 5.20435 27 6 27H24C24.7956 27 25.5587 26.6839 26.1213 26.1213C26.6839 25.5587 27 24.7956 27 24V6C27 5.20435 26.6839 4.44129 26.1213 3.87868C25.5587 3.31607 24.7956 3 24 3H6ZM6 0H24C25.5913 0 27.1174 0.632141 28.2426 1.75736C29.3679 2.88258 30 4.4087 30 6V24C30 25.5913 29.3679 27.1174 28.2426 28.2426C27.1174 29.3679 25.5913 30 24 30H6C4.4087 30 2.88258 29.3679 1.75736 28.2426C0.632141 27.1174 0 25.5913 0 24V6C0 4.4087 0.632141 2.88258 1.75736 1.75736C2.88258 0.632141 4.4087 0 6 0Z" fill="#DDB46F"/>
</svg>
