<svg width="201" height="141" viewBox="0 0 201 141" fill="none" xmlns="http://www.w3.org/2000/svg">
<path d="M85.8274 90.1728C87.9353 103.097 92.5304 114.927 101.847 124.399C115.127 137.955 131.694 142.165 150.075 139.892C183.421 135.766 206.143 103.013 198.682 70.302C193.159 46.0529 173.893 28.9606 148.135 25.5927C145.437 25.2559 145.227 24.1614 145.648 22.0564C146.829 16.1204 149.021 10.6054 151.803 5.25884C153.363 2.22771 152.225 0.417439 148.768 0.459538C143.667 0.459539 138.945 2.05932 134.392 4.20637C117.867 11.9947 105.304 24.2034 95.7343 39.5696C88.6941 50.8522 84.4784 63.0609 84.6892 77.964C84.5206 81.0794 85.0264 85.6261 85.7431 90.1307L85.8274 90.1728ZM96.7039 49.3787C105.768 31.6129 118.921 17.8044 137.09 9.08986C138.861 8.24788 140.8 7.7006 142.697 7.02701C143.245 6.81652 143.878 6.52181 144.341 7.02701C144.805 7.5322 144.299 8.12159 144.088 8.62677C141.728 14.4365 139.873 20.3303 139.788 26.6873C139.788 29.8447 140.336 30.5183 143.456 30.6867C158.548 31.4445 171.364 37.0437 181.482 48.4104C189.112 56.9987 193.328 67.0603 194.34 78.5534C196.7 106.381 176.549 130.63 149.737 134.461C147.208 134.84 144.594 134.924 143.161 135.05C128.027 134.798 115.464 130.798 105.557 120.442C97.1677 111.643 93.0784 100.782 91.2235 88.9519C89.0314 75.2276 90.3382 61.9243 96.7039 49.4208L96.7039 49.3787Z" fill="#DDB46F"/>
<path d="M2.99949 95.3932C6.49852 110.296 13.5388 123.01 26.6917 131.598C38.7065 139.471 52.0703 141.744 66.1085 139.892C100.129 135.387 122.515 102.803 114.673 69.4601C109.109 45.8004 89.6743 28.7924 64.2536 25.5508C61.7242 25.214 61.4291 24.2457 61.8507 22.1828C63.0311 16.1626 65.2654 10.5635 68.0477 5.17478C69.5654 2.26995 68.385 0.45969 65.1389 0.459691C60.0379 0.459691 55.2742 2.01735 50.7634 4.16442C34.2378 11.9528 21.6329 24.1194 12.0632 39.4435C4.98087 50.8102 0.680863 63.0611 0.933802 77.9221C0.765177 83.0161 1.56615 89.2467 2.99949 95.4353L2.99949 95.3932ZM12.7799 49.5473C21.8437 31.6551 35.0388 17.8045 53.2928 9.09C55.1055 8.24802 57.0026 7.70073 58.8997 7.02715C59.4477 6.81666 60.1222 6.52195 60.5016 7.15343C60.6703 7.49022 60.4595 8.12172 60.2908 8.54271C58.3516 13.1736 56.9604 17.8887 56.1595 22.8564C55.0634 29.8028 55.6536 30.6027 62.6516 31.1078C87.0184 32.876 107.127 51.8627 110.289 75.9855C113.999 104.445 93.9743 130.714 65.6026 134.545C63.1154 134.882 60.6281 134.924 59.2791 135.051C44.0604 134.756 31.4555 130.714 21.5486 120.19C13.2858 111.391 9.23874 100.571 7.42599 88.8679C5.27598 75.2277 6.54067 62.0086 12.8642 49.5894L12.7799 49.5473Z" fill="#DDB46F"/>
</svg>
